# xmcd
#
# Track frame offsets:
#	150
#	19605
#	43697
#	71095
#	90260
#	113627
#	126545
#	146270
#	177655
#	193405
#	218360
#	229997
#	259777
#	285395
#	301847
#	324860
#
# Disc length: 4599 seconds
#
# Revision: 4
# Processed by: cddbd v1.5PL3 Copyright (c) Steve Scherf et al.
# Submitted via: CDex 1.50Beta5
#
DISCID=df11f510
DTITLE=小松未歩 - 小松未歩“WONDERFUL WORLD”〜Single Remixes&More〜
DYEAR=2002
DGENRE=New Age
TTITLE0=輝ける星-M-oZ filter mix-
TTITLE1=anybody’s game-night clubbers mix-
TTITLE2=あなたがいるから-lightin’ grooves never wanna stop mix-
TTITLE3=dance-DJ ME-YA’s all night remix feat.RIP TRAP-
TTITLE4=願い事ひとつだけ-moon light night mix-
TTITLE5=風がそよぐ場所-Bootee’s electro dub mix radio edit-
TTITLE6=さよならのかけら-shooting star mix-
TTITLE7=愛してる-thick mist.thick mix-
TTITLE8=さいごの砦-DJ ME-YA’s boogie down remix-
TTITLE9=Love gone-Version:esta nevand-
TTITLE10=最短距離で-Cay Taylan’s paradise diskko dub mix rajio e
TTITLE11=謎-HIROSHI’s secret of life mix-
TTITLE12=氷の上に立つように-night clubber mix-
TTITLE13=チャンス-S9 remix radio edit-
TTITLE14=とどまることのない愛-hagy mix-
TTITLE15=君の瞳には映らない-lightin’ groovers light on the disco mix
EXTD=
EXTT0=
EXTT1=
EXTT2=
EXTT3=
EXTT4=
EXTT5=
EXTT6=
EXTT7=
EXTT8=
EXTT9=
EXTT10=
EXTT11=
EXTT12=
EXTT13=
EXTT14=
EXTT15=
PLAYORDER=
